:SAMPLES-PER-SECOND 30
:FRAME-RANGE 1-3358
:FULLY-SPECIFIED
:DEGREES
420
root  78.9083 38.607 9.49275 -35.216 -81.9257 40.5134
RightUpLeg  -8.17197 -15.7052 -13.0653
RightLeg  61.1232 -7.59538 -15.0704
RightFoot  0.454272 -0.894079 8.66908
RightToes  -5.8209e-011 0 -3.6325e-017
Spine  11.4353 2.61666 -3.36257
Spine1  -4.30712 3.22024 -8.00019
HEad  -4.68798 -5.44771 5.45641
LeftShoulder1  1.30868 -0.0747663 -30.5077
LeftArm  -1.74161 12.5691 -24.9889
LeftForeArm  4.95935 -6.32443 -15.6416
LeftHand  0.192389 -0.521167 -3.7486
RightShoulder  10.261 16.1718 45.5678
RightArm  -6.53314 12.1043 14.6724
RightForeArm  10.0986 6.66005 13.7275
RightHand  -0.0114762 6.45421 -0.455703
LeftUpLeg  -18.8653 14.7327 -7.30042
LeftLeg  23.7158 -0.771188 -0.0196801
LeftFoot  -11.3981 0.0669684 -2.78257
LeftToes  -4.03819e-010 -8.71445e-011 8.52097e-011
421
root  80.0704 38.6263 9.57603 -59.912 -84.9182 65.0283
RightUpLeg  -2.78631 -14.4593 -13.8794
RightLeg  54.5205 -9.01607 -13.6889
RightFoot  3.76654 -1.00093 7.73127
RightToes  -5.8209e-011 0 -3.6325e-017
Spine  11.6742 2.87926 1.82029
Spine1  -4.37778 4.67011 -12.2349
HEad  -5.67029 -4.90063 4.79308
LeftShoulder1  1.35731 -0.172673 -30.861
LeftArm  -7.38443 11.3628 -25.0899
LeftForeArm  10.1515 -0.927212 -16.4468
LeftHand  0.206437 -0.219105 -4.28109
RightShoulder  10.5303 17.0281 44.7693
RightArm  -8.84542 11.7159 14.7515
RightForeArm  7.1911 8.00592 13.0238
RightHand  -0.041761 6.10663 -0.755761
LeftUpLeg  -20.5322 13.9675 -7.16141
LeftLeg  23.6347 3.63395 2.08977
LeftFoot  -9.52336 0.0986579 -2.61711
LeftToes  -4.03819e-010 -8.71445e-011 8.52097e-011
422
root  81.1735 38.7979 9.51349 -114.959 -85.146 120.234
RightUpLeg  2.21153 -12.5946 -14.1936
RightLeg  44.322 -10.8498 -11.425
RightFoot  6.47252 -1.27947 8.43402
RightToes  -5.8209e-011 0 -3.6325e-017
Spine  11.1867 3.48872 3.87667
Spine1  -4.02683 5.68652 -12.8503
HEad  -5.80561 -2.80011 3.04282
LeftShoulder1  1.33991 -0.121495 -30.9019
LeftArm  -9.05383 12.4862 -26.9982
LeftForeArm  11.2096 0.3976 -16.4152
LeftHand  0.232401 -0.377971 -4.66932
RightShoulder  11.0605 18.4381 43.9402
RightArm  -7.76876 12.3251 14.957
RightForeArm  5.41032 8.66139 12.9865
RightHand  -0.0114183 6.11858 -0.450128
LeftUpLeg  -21.3223 14.9348 -6.89799
LeftLeg  21.4251 6.94003 3.33191
LeftFoot  -6.78491 0.136737 -2.41294
LeftToes  -4.03819e-010 -8.71445e-011 8.52097e-011
423
root  82.2701 38.9726 9.36031 -142.603 -81.679 148.213
RightUpLeg  7.00761 -10.5992 -14.8714
RightLeg  32.3104 -12.8954 -8.87903
RightFoot  4.29368 -2.35272 17.2333
RightToes  -5.8209e-011 0 -3.6325e-017
Spine  10.5781 3.87237 3.7918
Spine1  -3.771 5.98025 -11.7805
HEad  -5.59629 0.431798 1.67092
LeftShoulder1  1.26287 0.0763115 -30.7833
LeftArm  -7.16704 14.5655 -29.1581
LeftForeArm  9.39954 -0.692937 -16.5689
LeftHand  0.291448 -0.677527 -5.53874
RightShoulder  11.7175 19.9121 43.5748
RightArm  -5.57823 13.9032 15.4328
RightForeArm  7.31104 8.60076 13.1932
RightHand  0.0585053 6.60468 0.217969
LeftUpLeg  -21.6743 16.0181 -6.65428
LeftLeg  18.4451 10.2955 3.57007
LeftFoot  -4.28967 0.192775 -2.71044
LeftToes  -4.03819e-010 -8.71445e-011 8.52097e-011
424
root  83.5046 38.9794 9.12635 -149.527 -77.5942 155.449
RightUpLeg  11.0529 -9.36532 -15.774
RightLeg  20.6859 -11.1174 -4.80811
RightFoot  -3.03892 -1.75402 23.5648
RightToes  -5.8209e-011 0 -3.6325e-017
Spine  10.5842 4.00706 3.46613
Spine1  -3.73036 6.08519 -11.9921
HEad  -6.05673 3.37138 0.53686
LeftShoulder1  1.27682 0.046199 -30.8671
LeftArm  -6.069 14.9949 -30.0649
LeftForeArm  10.4451 -1.07223 -16.5715
LeftHand  0.402654 -1.48588 -6.68549
RightShoulder  12.1699 20.7056 43.7697
RightArm  -2.35131 15.3177 16.3427
RightForeArm  9.26888 9.39219 13.0225
RightHand  0.0929363 7.23186 0.491644
LeftUpLeg  -22.4697 15.9384 -6.0233
LeftLeg  16.5995 14.5229 3.03563
LeftFoot  -2.6785 0.290678 -3.6253
LeftToes  -4.03819e-010 -8.71445e-011 8.52097e-011
425
root  84.8512 38.8526 8.89018 -151.983 -73.8623 158.443
RightUpLeg  13.3876 -10.8828 -17.1248
RightLeg  11.0015 -8.79572 -2.44539
RightFoot  -7.93008 -1.00593 31.195
RightToes  -5.8209e-011 0 -3.6325e-017
Spine  10.6866 3.92379 3.52028
Spine1  -3.61671 6.10435 -12.8337
HEad  -7.16466 5.93763 -1.11154
LeftShoulder1  1.30556 0.00113668 -31.2158
LeftArm  -6.16883 13.3787 -30.04
LeftForeArm  12.4484 -0.420311 -16.5985
LeftHand  0.453343 -1.80771 -7.17255
RightShoulder  12.4788 21.2647 43.8619
RightArm  4.14209 15.8123 17.6851
RightForeArm  5.56292 12.4801 11.9098
RightHand  0.0859705 7.29486 0.422479
LeftUpLeg  -24.0862 14.8972 -4.9952
LeftLeg  15.7435 19.3827 2.6546
LeftFoot  -1.23231 0.413989 -4.59658
LeftToes  -4.03819e-010 -8.71445e-011 8.52097e-011
426
root  86.0871 38.8468 8.6769 -154.332 -70.8685 161.596
RightUpLeg  12.4291 -13.3762 -17.8557
RightLeg  7.08876 -4.82214 -0.252271
RightFoot  -10.9666 -0.162113 26.0946
RightToes  -5.8209e-011 0 -3.6325e-017
Spine  10.7156 3.559 4.70825
Spine1  -3.87971 5.93241 -13.0302
HEad  -8.05954 8.38111 -2.90759
LeftShoulder1  1.33107 -0.0409412 -31.4949
LeftArm  -6.30706 10.9721 -29.7613
LeftForeArm  13.8879 0.178281 -16.6379
LeftHand  0.393127 -2.13924 -5.89722
RightShoulder  12.6768 21.5494 44.0564
RightArm  12.2907 15.5793 18.9909
RightForeArm  -1.31204 16.4011 9.79347
RightHand  0.0743167 7.16655 0.32579
LeftUpLeg  -25.0973 14.0681 -3.48554
LeftLeg  13.349 23.3067 1.69863
LeftFoot  0.789708 0.50571 -4.80372
LeftToes  -4.03819e-010 -8.71445e-011 8.52097e-011
427
root  87.3369 38.7963 8.45537 -157.445 -68.455 165.459
RightUpLeg  10.4091 -12.9266 -16.3402
RightLeg  5.32422 -3.14628 0.462072
RightFoot  -13.6114 0.365441 22.8664
RightToes  -5.8209e-011 0 -3.6325e-017
Spine  11.0525 3.1991 5.91219
Spine1  -3.88295 5.62417 -12.4515
HEad  -9.19214 10.6473 -4.60446
LeftShoulder1  1.34223 -0.0589031 -31.6196
LeftArm  -7.66647 8.8352 -29.6997
LeftForeArm  14.4431 0.0483915 -16.4228
LeftHand  0.341508 -2.03478 -5.18213
RightShoulder  12.5695 21.0755 44.5615
RightArm  20.0632 15.552 19.8018
RightForeArm  -6.88717 19.4806 7.72
RightHand  0.0611097 7.16298 0.204229
LeftUpLeg  -26.677 14.7849 -1.87857
LeftLeg  11.9889 24.0949 0.911458
LeftFoot  1.78426 0.568255 -5.03252
LeftToes  -4.03819e-010 -8.71445e-011 8.52097e-011
428
root  88.4591 38.8047 8.23158 -159.955 -66.7203 168.688
RightUpLeg  7.92584 -11.9572 -13.9017
RightLeg  4.91789 -4.29492 0.613182
RightFoot  -15.3159 0.58383 19.664
RightToes  -5.8209e-011 0 -3.6325e-017
Spine  11.3801 2.8168 6.39122
Spine1  -3.9757 5.03115 -10.7512
HEad  -10.9124 12.8201 -6.13741
LeftShoulder1  1.33854 -0.0749817 -31.2694
LeftArm  -8.6699 7.91774 -30.237
LeftForeArm  14.9847 -1.42565 -15.9554
LeftHand  0.258004 -1.80037 -4.02258
RightShoulder  12.3055 20.2215 45.2437
RightArm  25.8722 15.0178 19.9442
RightForeArm  -8.94685 20.7181 6.9242
RightHand  0.0528197 7.19833 0.125627
LeftUpLeg  -28.0125 14.6913 -0.119903
LeftLeg  10.687 22.7522 -0.145252
LeftFoot  1.0892 0.582533 -5.4084
LeftToes  -4.03819e-010 -8.71445e-011 8.52097e-011
429
root  89.3517 38.8977 8.021 -161.262 -65.9541 170.111
RightUpLeg  6.58991 -11.2095 -12.1756
RightLeg  4.55096 -5.31463 0.764991
RightFoot  -15.8396 0.573653 17.2396
RightToes  -5.8209e-011 0 -3.6325e-017
Spine  11.2588 2.42583 6.03623
Spine1  -3.49705 4.23449 -8.27666
HEad  -11.8679 14.4257 -7.12559
LeftShoulder1  1.33172 -0.0903736 -30.9945
LeftArm  -7.59584 7.16 -30.7225
LeftForeArm  14.3611 -3.87388 -15.4567
LeftHand  0.206538 -1.81109 -3.18343
RightShoulder  11.9333 19.1112 46.0812
RightArm  28.1197 13.8379 19.3503
RightForeArm  -7.01139 19.0686 8.3791
RightHand  0.0322722 7.32497 -0.0690193
LeftUpLeg  -28.1167 12.4028 1.61584
LeftLeg  8.73489 20.3375 -1.39781
LeftFoot  -0.278522 0.59586 -6.13338
LeftToes  -4.03819e-010 -8.71445e-011 8.52097e-011
